<svg xmlns="http://www.w3.org/2000/svg" width="1200" height="1600" viewBox="0 0 1200 1600" role="img" aria-labelledby="title desc">
  <title id="title">Camasi lejere de vara la date pe terasa</title>
  <desc id="desc">Ilustratie editoriala unica pentru Camasi lejere de vara la date pe terasa in 2026</desc>
  <rect width="1200" height="1600" fill="#f4f2ed"/>
  <rect x="74" y="74" width="1052" height="1452" rx="48" fill="none" stroke="#34495e" stroke-width="8" opacity=".12"/>
  <g>
    <circle cx="220" cy="260" r="68" fill="#ffffff" opacity=".55"/>
    <rect x="820" y="190" width="180" height="260" rx="90" fill="#d8a24a" opacity=".20"/>
    <path d="M130 1350 C360 1240 520 1510 780 1340 S1030 1280 1120 1390" fill="none" stroke="#d8a24a" stroke-width="14" opacity=".35"/>
  
      <path d="M410 390 L540 310 L600 390 L660 310 L790 390 L900 700 L790 760 L750 1190 L450 1190 L410 760 L300 700Z" fill="#ffffff" stroke="#34495e" stroke-width="12"/>
      <path d="M540 310 L600 510 L660 310" fill="none" stroke="#34495e" stroke-width="10"/>
      <path d="M600 510 L600 1160" stroke="#d8a24a" stroke-width="10"/>
      <circle cx="625" cy="635" r="12" fill="#34495e"/><circle cx="625" cy="735" r="12" fill="#34495e"/><circle cx="625" cy="835" r="12" fill="#34495e"/>
    </g>
  <text x="120" y="124" font-family="Arial, Helvetica, sans-serif" font-size="34" font-weight="700" fill="#34495e" opacity=".88">GHID MODA 2026</text>
  <text x="120" y="1450" font-family="Arial, Helvetica, sans-serif" font-size="38" font-weight="700" fill="#34495e">Camasi lejere de vara la date pe terasa</text>
  <rect x="120" y="1488" width="460" height="12" rx="6" fill="#d8a24a"/>
</svg>