<svg xmlns="http://www.w3.org/2000/svg" width="1200" height="1600" viewBox="0 0 1200 1600" role="img" aria-labelledby="title desc">
  <title id="title">Ochelari de soare potriviti fetei pentru poze de Instagram</title>
  <desc id="desc">Ilustratie editoriala unica pentru Ochelari de soare potriviti fetei pentru poze de Instagram in 2026</desc>
  <rect width="1200" height="1600" fill="#fff7e8"/>
  <rect x="74" y="74" width="1052" height="1452" rx="48" fill="none" stroke="#cc7722" stroke-width="8" opacity=".12"/>
  <g>
    <circle cx="292" cy="260" r="68" fill="#2c2c2c" opacity=".55"/>
    <rect x="748" y="190" width="180" height="260" rx="90" fill="#f4c067" opacity=".20"/>
    <path d="M130 1350 C360 1240 520 1510 780 1340 S1030 1280 1120 1390" fill="none" stroke="#f4c067" stroke-width="14" opacity=".35"/>
  
    <path d="M300 690 C405 560 525 560 600 690 C675 560 795 560 900 690" fill="none" stroke="#cc7722" stroke-width="28" stroke-linecap="round"/>
    <ellipse cx="435" cy="730" rx="170" ry="115" fill="#2c2c2c" stroke="#cc7722" stroke-width="12"/>
    <ellipse cx="765" cy="730" rx="170" ry="115" fill="#2c2c2c" stroke="#cc7722" stroke-width="12"/>
    <path d="M275 730 C375 805 500 805 595 730 M605 730 C700 805 825 805 925 730" fill="none" stroke="#f4c067" stroke-width="14"/>
  </g>
  <text x="120" y="124" font-family="Arial, Helvetica, sans-serif" font-size="34" font-weight="700" fill="#cc7722" opacity=".88">GHID MODA 2026</text>
  <text x="120" y="1450" font-family="Arial, Helvetica, sans-serif" font-size="38" font-weight="700" fill="#cc7722">Ochelari de soare potriviti fetei pentru poze de</text>
  <rect x="120" y="1488" width="268" height="12" rx="6" fill="#f4c067"/>
</svg>