<svg xmlns="http://www.w3.org/2000/svg" width="1200" height="1600" viewBox="0 0 1200 1600" role="img" aria-labelledby="title desc">
  <title id="title">Sandale peep-toe in city break</title>
  <desc id="desc">Ilustratie editoriala unica pentru Sandale peep-toe in city break in 2026</desc>
  <rect width="1200" height="1600" fill="#f5efe5"/>
  <rect x="74" y="74" width="1052" height="1452" rx="48" fill="none" stroke="#6f4e37" stroke-width="8" opacity=".12"/>
  <g>
    <circle cx="256" cy="260" r="68" fill="#222222" opacity=".55"/>
    <rect x="784" y="190" width="180" height="260" rx="90" fill="#d7b98e" opacity=".20"/>
    <path d="M130 1350 C360 1240 520 1510 780 1340 S1030 1280 1120 1390" fill="none" stroke="#d7b98e" stroke-width="14" opacity=".35"/>
  
      <ellipse cx="435" cy="830" rx="158" ry="388" fill="#222222" stroke="#6f4e37" stroke-width="12" transform="rotate(10 435 830)"/>
      <ellipse cx="745" cy="830" rx="158" ry="388" fill="#ffffff" stroke="#6f4e37" stroke-width="12" transform="rotate(-10 745 830)"/>
      <path d="M328 680 C420 760 485 865 538 1030" fill="none" stroke="#d7b98e" stroke-width="34" stroke-linecap="round"/>
      <path d="M852 680 C760 760 695 865 642 1030" fill="none" stroke="#d7b98e" stroke-width="34" stroke-linecap="round"/>
      <path d="M372 585 L520 730 M808 585 L660 730" stroke="#6f4e37" stroke-width="18" stroke-linecap="round"/>
    </g>
  <text x="120" y="124" font-family="Arial, Helvetica, sans-serif" font-size="34" font-weight="700" fill="#6f4e37" opacity=".88">GHID MODA 2026</text>
  <text x="120" y="1450" font-family="Arial, Helvetica, sans-serif" font-size="38" font-weight="700" fill="#6f4e37">Sandale peep-toe in city break</text>
  <rect x="120" y="1488" width="412" height="12" rx="6" fill="#d7b98e"/>
</svg>